<svg version="1.1" id="Livello_1" xmlns="http://www.w3.org/2000/svg" xmlns:xlink="http://www.w3.org/1999/xlink" x="0px" y="0px"
	 width="1800.665px" height="1000.131px" viewBox="0 0 1064.665 1000.131" style="enable-background:new 0 0 1064.665 880.131;"
	 xml:space="preserve">

<style type="text/css">
	.st0{fill:none;stroke:#000000;stroke-width:9;stroke-miterlimit:10;}
</style>

<defs>
	<style>

		.st0 {
			stroke-dasharray: 2300;
			stroke-dashoffset: 0;
			-webkit-animation: dash 2s linear forwards;
			-o-animation: dash 2s linear forwards;
			-moz-animation: dash 2s linear forwards;
			animation: dash 2s linear forwards;
		}

		@-webkit-keyframes dash {
			from {
				stroke-dashoffset: 2500;
			}
			to {
				stroke-dashoffset: 4600;
			}
		}
	</style>
</defs>
<g>
	<path class="st0" d="M1164.004,966.193L905.558,555.656c0,0-15.321-27.933-33.574-27.933c-18.253,0-33.574,27.933-33.574,27.933
	s-15.321,27.933-33.574,27.933c-18.253,0-33.574-27.933-33.574-27.933s-15.322-27.933-33.574-27.933
	c-18.253,0-33.574,27.933-33.574,27.933s-15.322,27.933-33.574,27.933s-33.574-27.933-33.574-27.933s-15.321-27.933-33.574-27.933
	c-18.253,0-33.574,27.933-33.574,27.933s-15.321,27.933-33.574,27.933c-18.253,0-33.574-27.933-33.574-27.933
	s-15.322-27.933-33.574-27.933c-18.253,0-33.574,27.933-33.574,27.933s-15.322,27.933-33.574,27.933s-33.574-27.933-33.574-27.933
	s-15.322-27.933-33.574-27.933c-18.253,0-33.574,27.933-33.574,27.933s-15.322,27.933-33.574,27.933s-33.574-27.933-33.574-27.933
	s-15.321-27.933-33.574-27.933s-33.574,27.933-33.574,27.933s-15.321,27.933-33.574,27.933s-33.574-27.933-33.574-27.933
	S84.453,527.723,66.2,527.723s-33.574,27.933-33.574,27.933"/>
<path class="st0" d="M1164.004,145.596L905.558,556.133c0,0-0.018,0.033-0.054,0.098l0.054-0.098c0,0-15.321-27.933-33.574-27.933
	c-18.253,0-33.574,27.933-33.574,27.933s-15.321,27.933-33.574,27.933c-18.253,0-33.574-27.933-33.574-27.933
	S755.939,528.2,737.686,528.2c-18.253,0-33.574,27.933-33.574,27.933s-15.322,27.933-33.574,27.933s-33.574-27.933-33.574-27.933
	S621.642,528.2,603.389,528.2c-18.253,0-33.574,27.933-33.574,27.933s-15.321,27.933-33.574,27.933
	c-18.253,0-33.574-27.933-33.574-27.933S487.345,528.2,469.092,528.2c-18.253,0-33.574,27.933-33.574,27.933
	s-15.322,27.933-33.574,27.933s-33.574-27.933-33.574-27.933S353.047,528.2,334.794,528.2c-18.253,0-33.574,27.933-33.574,27.933
	s-15.322,27.933-33.574,27.933s-33.574-27.933-33.574-27.933S218.75,528.2,200.497,528.2s-33.574,27.933-33.574,27.933
	s-15.321,27.933-33.574,27.933s-33.574-27.933-33.574-27.933S84.453,528.2,66.2,528.2s-33.574,27.933-33.574,27.933"/>

</g>
</svg>
